G04 EAGLE Gerber RS-274X export*
G75*
%MOMM*%
%FSLAX34Y34*%
%LPD*%
%INBottom Copper*%
%IPPOS*%
%AMOC8*
5,1,8,0,0,1.08239X$1,22.5*%
G01*
%ADD10C,0.152400*%
%ADD11C,0.756400*%


D10*
X542544Y225552D02*
X542544Y246888D01*
X542544Y225552D02*
X574548Y193548D01*
X574548Y131064D01*
X527304Y83820D01*
X452628Y83820D01*
D11*
X542544Y246888D03*
X452628Y83820D03*
D10*
X400812Y175260D02*
X516636Y175260D01*
X562356Y129540D01*
X568452Y129540D01*
X571500Y132588D01*
X571500Y187452D01*
X563880Y195072D01*
D11*
X400812Y175260D03*
X563880Y195072D03*
D10*
X484632Y568452D02*
X446532Y568452D01*
X440436Y562356D01*
X370332Y562356D01*
X368808Y560832D01*
X281940Y560832D01*
X278892Y563880D01*
X266700Y563880D01*
X259080Y556260D01*
X220980Y556260D01*
X202692Y537972D01*
X202692Y512064D01*
X196596Y505968D01*
X196596Y399288D01*
X214884Y381000D01*
D11*
X484632Y568452D03*
X214884Y381000D03*
D10*
X460248Y246888D02*
X472440Y246888D01*
X460248Y246888D02*
X455676Y242316D01*
X434340Y242316D01*
X219456Y457200D01*
D11*
X472440Y246888D03*
X219456Y457200D03*
D10*
X306324Y582168D02*
X480060Y582168D01*
X513588Y615696D01*
X656844Y615696D01*
X684276Y588264D01*
X684276Y495300D01*
D11*
X306324Y582168D03*
X684276Y495300D03*
D10*
X400812Y225552D02*
X361188Y225552D01*
X193548Y393192D01*
X193548Y515112D01*
X196596Y518160D01*
D11*
X400812Y225552D03*
X196596Y518160D03*
D10*
X438912Y248412D02*
X452628Y248412D01*
X438912Y248412D02*
X199644Y487680D01*
X199644Y504444D01*
X213360Y518160D01*
X213360Y531876D01*
D11*
X452628Y248412D03*
X213360Y531876D03*
D10*
X243840Y423672D02*
X419100Y248412D01*
D11*
X419100Y248412D03*
X243840Y423672D03*
D10*
X481584Y307848D02*
X621792Y448056D01*
X621792Y504444D01*
X618744Y507492D01*
X618744Y544068D01*
D11*
X481584Y307848D03*
X618744Y544068D03*
D10*
X234696Y601980D02*
X169164Y536448D01*
X234696Y601980D02*
X495300Y601980D01*
X512064Y618744D01*
X658368Y618744D01*
X690372Y586740D01*
X690372Y509016D01*
D11*
X169164Y536448D03*
X690372Y509016D03*
D10*
X400812Y164592D02*
X184404Y381000D01*
X184404Y533400D01*
X219456Y568452D01*
X257556Y568452D01*
X262128Y573024D01*
X342900Y573024D01*
X345948Y569976D01*
X364236Y569976D01*
X371856Y577596D01*
X507492Y577596D01*
X515112Y569976D01*
D11*
X400812Y164592D03*
X515112Y569976D03*
D10*
X400812Y195072D02*
X382524Y195072D01*
X187452Y390144D01*
X187452Y531876D01*
X220980Y565404D01*
X259080Y565404D01*
X263652Y569976D01*
X341376Y569976D01*
X344424Y566928D01*
X365760Y566928D01*
X373380Y574548D01*
X434340Y574548D01*
X438912Y569976D01*
D11*
X400812Y195072D03*
X438912Y569976D03*
D10*
X483108Y248412D02*
X516636Y248412D01*
X483108Y248412D02*
X454152Y219456D01*
X362712Y219456D01*
X190500Y391668D01*
X190500Y530352D01*
X222504Y562356D01*
X260604Y562356D01*
X265176Y566928D01*
X339852Y566928D01*
X342900Y563880D01*
X367284Y563880D01*
X371856Y568452D01*
X390144Y568452D01*
D11*
X516636Y248412D03*
X390144Y568452D03*
D10*
X419100Y547116D02*
X509016Y457200D01*
D11*
X419100Y547116D03*
X509016Y457200D03*
D10*
X512064Y547116D02*
X457200Y547116D01*
X512064Y547116D02*
X521208Y556260D01*
X624840Y556260D01*
X669036Y512064D01*
X669036Y460248D01*
X665988Y457200D01*
D11*
X457200Y547116D03*
X665988Y457200D03*
D10*
X580644Y492252D02*
X525780Y547116D01*
X580644Y492252D02*
X580644Y454152D01*
X583692Y451104D01*
X615696Y451104D01*
D11*
X525780Y547116D03*
X615696Y451104D03*
D10*
X568452Y509016D02*
X568452Y547116D01*
X568452Y509016D02*
X586740Y490728D01*
X586740Y457200D01*
D11*
X568452Y547116D03*
X586740Y457200D03*
D10*
X528828Y71628D02*
X445008Y71628D01*
X175260Y341376D01*
X175260Y537972D01*
X217932Y580644D01*
X230124Y580644D01*
D11*
X528828Y71628D03*
X230124Y580644D03*
D10*
X400812Y111252D02*
X400812Y105156D01*
X400812Y111252D02*
X163068Y348996D01*
X163068Y539496D01*
X190500Y566928D01*
D11*
X400812Y105156D03*
X190500Y566928D03*
D10*
X400812Y135636D02*
X400812Y124968D01*
X400812Y135636D02*
X178308Y358140D01*
X178308Y536448D01*
X216408Y574548D01*
X254508Y574548D01*
X262128Y582168D01*
X266700Y582168D01*
D11*
X400812Y124968D03*
X266700Y582168D03*
D10*
X400812Y155448D02*
X400812Y144780D01*
X400812Y155448D02*
X181356Y374904D01*
X181356Y534924D01*
X217932Y571500D01*
X256032Y571500D01*
X260604Y576072D01*
X348996Y576072D01*
D11*
X400812Y144780D03*
X348996Y576072D03*
D10*
X377952Y547116D02*
X377952Y530352D01*
X304800Y457200D01*
D11*
X377952Y547116D03*
X304800Y457200D03*
D10*
X272796Y551688D02*
X373380Y551688D01*
X374904Y553212D01*
X381000Y553212D01*
X414528Y519684D01*
X414528Y457200D01*
D11*
X272796Y551688D03*
X414528Y457200D03*
D10*
X225552Y518160D02*
X225552Y547116D01*
X225552Y518160D02*
X205740Y498348D01*
X205740Y492252D01*
X249936Y448056D01*
X440436Y448056D01*
X449580Y457200D01*
D11*
X225552Y547116D03*
X449580Y457200D03*
D10*
X554736Y585216D02*
X673608Y585216D01*
X554736Y585216D02*
X553212Y586740D01*
X545592Y586740D01*
X512064Y553212D01*
X454152Y553212D01*
X451104Y550164D01*
X451104Y524256D01*
X515112Y460248D01*
X515112Y454152D01*
X512064Y451104D01*
X501396Y451104D01*
X495300Y457200D01*
D11*
X673608Y585216D03*
X495300Y457200D03*
D10*
X428244Y79248D02*
X417576Y79248D01*
X160020Y336804D01*
X160020Y545592D01*
X222504Y608076D01*
X431292Y608076D01*
D11*
X428244Y79248D03*
X431292Y608076D03*
D10*
X478536Y77724D02*
X525780Y77724D01*
X635508Y187452D01*
X635508Y408432D01*
X696468Y469392D01*
X696468Y585216D01*
X659892Y621792D01*
X490728Y621792D01*
X477012Y608076D01*
D11*
X478536Y77724D03*
X477012Y608076D03*
D10*
X571500Y348996D02*
X571500Y275844D01*
X571500Y348996D02*
X678180Y455676D01*
X678180Y580644D01*
X679704Y582168D01*
X679704Y588264D01*
X655320Y612648D01*
X519684Y612648D01*
X515112Y608076D01*
D11*
X571500Y275844D03*
X515112Y608076D03*
D10*
X565404Y347472D02*
X565404Y236220D01*
X565404Y347472D02*
X672084Y454152D01*
X672084Y513588D01*
X605028Y580644D01*
X550164Y580644D01*
D11*
X565404Y236220D03*
X550164Y580644D03*
D10*
X560832Y606552D02*
X598932Y606552D01*
X560832Y606552D02*
X513588Y559308D01*
X371856Y559308D01*
X370332Y557784D01*
X280416Y557784D01*
X277368Y560832D01*
X268224Y560832D01*
X260604Y553212D01*
X222504Y553212D01*
X219456Y550164D01*
X219456Y516636D01*
X202692Y499872D01*
X202692Y490728D01*
X251460Y441960D01*
X348996Y441960D01*
D11*
X598932Y606552D03*
X348996Y441960D03*
D10*
X371856Y533400D02*
X297180Y533400D01*
X259080Y495300D01*
X211836Y495300D01*
D11*
X371856Y533400D03*
X211836Y495300D03*
D10*
X495300Y531876D02*
X501396Y531876D01*
X522732Y553212D01*
X618744Y553212D01*
X662940Y509016D01*
D11*
X495300Y531876D03*
X662940Y509016D03*
D10*
X563880Y225552D02*
X563880Y214884D01*
X565404Y227076D02*
X583692Y245364D01*
X565404Y227076D02*
X563880Y225552D01*
X583692Y245364D02*
X583692Y323088D01*
X626364Y413004D02*
X626364Y509016D01*
X626364Y413004D02*
X559308Y345948D01*
X559308Y233172D01*
X565404Y227076D01*
D11*
X563880Y214884D03*
X583692Y323088D03*
X626364Y509016D03*
D10*
X563880Y185928D02*
X563880Y175260D01*
X563880Y185928D02*
X525780Y224028D01*
X525780Y254508D01*
X457200Y323088D01*
X565404Y431292D02*
X565404Y498348D01*
X565404Y431292D02*
X457200Y323088D01*
D11*
X563880Y175260D03*
X457200Y323088D03*
X565404Y498348D03*
D10*
X563880Y111252D02*
X563880Y105156D01*
X563880Y111252D02*
X641604Y188976D01*
X641604Y405384D01*
D11*
X563880Y105156D03*
X641604Y405384D03*
D10*
X460248Y406908D02*
X289560Y406908D01*
X460248Y406908D02*
X466344Y400812D01*
X472440Y400812D01*
X539496Y467868D01*
X539496Y522732D01*
D11*
X289560Y406908D03*
X539496Y522732D03*
D10*
X408432Y505968D02*
X362712Y505968D01*
X307848Y451104D01*
X301752Y451104D01*
X281940Y470916D01*
D11*
X408432Y505968D03*
X281940Y470916D03*
D10*
X469392Y487680D02*
X469392Y406908D01*
X469392Y487680D02*
X458724Y498348D01*
D11*
X469392Y406908D03*
X458724Y498348D03*
D10*
X445008Y536448D02*
X438912Y536448D01*
X419100Y556260D01*
X373380Y556260D01*
X371856Y554736D01*
X278892Y554736D01*
X275844Y557784D01*
X269748Y557784D01*
X256032Y544068D01*
X256032Y501396D01*
D11*
X445008Y536448D03*
X256032Y501396D03*
D10*
X565404Y164592D02*
X565404Y135636D01*
X565404Y164592D02*
X522732Y207264D01*
X522732Y251460D01*
X457200Y316992D01*
X387096Y316992D01*
X318516Y385572D01*
D11*
X565404Y135636D03*
X318516Y385572D03*
X152400Y660400D03*
X774700Y660400D03*
X139700Y114300D03*
X774700Y114300D03*
M02*
