G04 EAGLE Gerber RS-274X export*
G75*
%MOMM*%
%FSLAX34Y34*%
%LPD*%
%INSilkscreen Bottom*%
%IPPOS*%
%AMOC8*
5,1,8,0,0,1.08239X$1,22.5*%
G01*
%ADD10C,0.076200*%


D10*
X390779Y234061D02*
X386800Y245999D01*
X382820Y234061D01*
X383815Y237046D02*
X389784Y237046D01*
X387463Y96139D02*
X387463Y84201D01*
X390779Y96139D02*
X384147Y96139D01*
X410986Y256667D02*
X413639Y259983D01*
X401701Y259983D01*
X401701Y256667D02*
X401701Y263299D01*
X560846Y256667D02*
X563499Y259983D01*
X551561Y259983D01*
X551561Y256667D02*
X551561Y263299D01*
X558193Y268097D02*
X558193Y272076D01*
X558191Y272178D01*
X558185Y272279D01*
X558175Y272380D01*
X558162Y272481D01*
X558144Y272581D01*
X558123Y272680D01*
X558098Y272779D01*
X558069Y272876D01*
X558037Y272973D01*
X558001Y273068D01*
X557961Y273161D01*
X557918Y273253D01*
X557871Y273343D01*
X557820Y273432D01*
X557767Y273518D01*
X557710Y273602D01*
X557650Y273684D01*
X557587Y273764D01*
X557521Y273841D01*
X557452Y273916D01*
X557380Y273988D01*
X557305Y274057D01*
X557228Y274123D01*
X557148Y274186D01*
X557066Y274246D01*
X556982Y274303D01*
X556896Y274356D01*
X556807Y274407D01*
X556717Y274454D01*
X556625Y274497D01*
X556532Y274537D01*
X556437Y274573D01*
X556340Y274605D01*
X556243Y274634D01*
X556144Y274659D01*
X556045Y274680D01*
X555945Y274698D01*
X555844Y274711D01*
X555743Y274721D01*
X555642Y274727D01*
X555540Y274729D01*
X554877Y274729D01*
X554763Y274727D01*
X554648Y274721D01*
X554534Y274711D01*
X554421Y274697D01*
X554307Y274680D01*
X554195Y274658D01*
X554083Y274633D01*
X553973Y274603D01*
X553863Y274570D01*
X553755Y274533D01*
X553648Y274493D01*
X553542Y274448D01*
X553438Y274401D01*
X553336Y274349D01*
X553236Y274294D01*
X553137Y274236D01*
X553041Y274174D01*
X552946Y274109D01*
X552855Y274041D01*
X552765Y273969D01*
X552678Y273895D01*
X552594Y273818D01*
X552512Y273737D01*
X552433Y273654D01*
X552357Y273569D01*
X552284Y273480D01*
X552215Y273390D01*
X552148Y273297D01*
X552085Y273201D01*
X552025Y273104D01*
X551968Y273004D01*
X551915Y272903D01*
X551865Y272800D01*
X551819Y272695D01*
X551776Y272589D01*
X551738Y272481D01*
X551703Y272372D01*
X551672Y272262D01*
X551644Y272151D01*
X551621Y272039D01*
X551601Y271926D01*
X551585Y271813D01*
X551573Y271699D01*
X551565Y271585D01*
X551561Y271470D01*
X551561Y271356D01*
X551565Y271241D01*
X551573Y271127D01*
X551585Y271013D01*
X551601Y270900D01*
X551621Y270787D01*
X551644Y270675D01*
X551672Y270564D01*
X551703Y270454D01*
X551738Y270345D01*
X551776Y270237D01*
X551819Y270131D01*
X551865Y270026D01*
X551915Y269923D01*
X551968Y269822D01*
X552025Y269722D01*
X552085Y269625D01*
X552148Y269529D01*
X552215Y269436D01*
X552284Y269346D01*
X552357Y269257D01*
X552433Y269172D01*
X552512Y269089D01*
X552594Y269008D01*
X552678Y268931D01*
X552765Y268857D01*
X552855Y268785D01*
X552946Y268717D01*
X553041Y268652D01*
X553137Y268590D01*
X553236Y268532D01*
X553336Y268477D01*
X553438Y268425D01*
X553542Y268378D01*
X553648Y268333D01*
X553755Y268293D01*
X553863Y268256D01*
X553973Y268223D01*
X554083Y268193D01*
X554195Y268168D01*
X554307Y268146D01*
X554421Y268129D01*
X554534Y268115D01*
X554648Y268105D01*
X554763Y268099D01*
X554877Y268097D01*
X558193Y268097D01*
X558337Y268099D01*
X558480Y268105D01*
X558624Y268115D01*
X558767Y268128D01*
X558909Y268146D01*
X559051Y268167D01*
X559193Y268192D01*
X559334Y268221D01*
X559474Y268254D01*
X559613Y268290D01*
X559750Y268331D01*
X559887Y268375D01*
X560023Y268422D01*
X560157Y268474D01*
X560290Y268529D01*
X560421Y268587D01*
X560551Y268649D01*
X560678Y268715D01*
X560804Y268784D01*
X560929Y268857D01*
X561051Y268932D01*
X561171Y269011D01*
X561288Y269094D01*
X561404Y269179D01*
X561517Y269267D01*
X561628Y269359D01*
X561736Y269453D01*
X561842Y269551D01*
X561945Y269651D01*
X562045Y269754D01*
X562143Y269860D01*
X562237Y269968D01*
X562329Y270079D01*
X562417Y270192D01*
X562502Y270307D01*
X562585Y270425D01*
X562664Y270545D01*
X562739Y270667D01*
X562812Y270792D01*
X562881Y270918D01*
X562946Y271045D01*
X563009Y271175D01*
X563067Y271306D01*
X563122Y271439D01*
X563174Y271573D01*
X563221Y271709D01*
X563265Y271846D01*
X563306Y271983D01*
X563342Y272122D01*
X563375Y272262D01*
X563404Y272403D01*
X563429Y272545D01*
X563450Y272687D01*
X563468Y272829D01*
X563481Y272972D01*
X563491Y273116D01*
X563497Y273259D01*
X563499Y273403D01*
M02*
