G04 EAGLE Gerber RS-274X export*
G75*
%MOMM*%
%FSLAX34Y34*%
%LPD*%
%INSolderpaste Top*%
%IPPOS*%
%AMOC8*
5,1,8,0,0,1.08239X$1,22.5*%
G01*
%ADD10C,0.300000*%
%ADD11R,0.800000X1.200000*%
%ADD12R,0.700000X1.100000*%
%ADD13C,0.482600*%
%ADD14R,1.397000X1.193800*%


D10*
X335470Y517200D02*
X335470Y524200D01*
X342470Y524200D01*
X342470Y517200D01*
X335470Y517200D01*
X335470Y520050D02*
X342470Y520050D01*
X342470Y522900D02*
X335470Y522900D01*
X317930Y524200D02*
X317930Y517200D01*
X317930Y524200D02*
X324930Y524200D01*
X324930Y517200D01*
X317930Y517200D01*
X317930Y520050D02*
X324930Y520050D01*
X324930Y522900D02*
X317930Y522900D01*
X487870Y555300D02*
X487870Y562300D01*
X494870Y562300D01*
X494870Y555300D01*
X487870Y555300D01*
X487870Y558150D02*
X494870Y558150D01*
X494870Y561000D02*
X487870Y561000D01*
X470330Y562300D02*
X470330Y555300D01*
X470330Y562300D02*
X477330Y562300D01*
X477330Y555300D01*
X470330Y555300D01*
X470330Y558150D02*
X477330Y558150D01*
X477330Y561000D02*
X470330Y561000D01*
X449770Y562300D02*
X449770Y555300D01*
X449770Y562300D02*
X456770Y562300D01*
X456770Y555300D01*
X449770Y555300D01*
X449770Y558150D02*
X456770Y558150D01*
X456770Y561000D02*
X449770Y561000D01*
X432230Y562300D02*
X432230Y555300D01*
X432230Y562300D02*
X439230Y562300D01*
X439230Y555300D01*
X432230Y555300D01*
X432230Y558150D02*
X439230Y558150D01*
X439230Y561000D02*
X432230Y561000D01*
X411670Y562300D02*
X411670Y555300D01*
X411670Y562300D02*
X418670Y562300D01*
X418670Y555300D01*
X411670Y555300D01*
X411670Y558150D02*
X418670Y558150D01*
X418670Y561000D02*
X411670Y561000D01*
X394130Y562300D02*
X394130Y555300D01*
X394130Y562300D02*
X401130Y562300D01*
X401130Y555300D01*
X394130Y555300D01*
X394130Y558150D02*
X401130Y558150D01*
X401130Y561000D02*
X394130Y561000D01*
X373570Y562300D02*
X373570Y555300D01*
X373570Y562300D02*
X380570Y562300D01*
X380570Y555300D01*
X373570Y555300D01*
X373570Y558150D02*
X380570Y558150D01*
X380570Y561000D02*
X373570Y561000D01*
X356030Y562300D02*
X356030Y555300D01*
X356030Y562300D02*
X363030Y562300D01*
X363030Y555300D01*
X356030Y555300D01*
X356030Y558150D02*
X363030Y558150D01*
X363030Y561000D02*
X356030Y561000D01*
X335470Y562300D02*
X335470Y555300D01*
X335470Y562300D02*
X342470Y562300D01*
X342470Y555300D01*
X335470Y555300D01*
X335470Y558150D02*
X342470Y558150D01*
X342470Y561000D02*
X335470Y561000D01*
X317930Y562300D02*
X317930Y555300D01*
X317930Y562300D02*
X324930Y562300D01*
X324930Y555300D01*
X317930Y555300D01*
X317930Y558150D02*
X324930Y558150D01*
X324930Y561000D02*
X317930Y561000D01*
X297370Y562300D02*
X297370Y555300D01*
X297370Y562300D02*
X304370Y562300D01*
X304370Y555300D01*
X297370Y555300D01*
X297370Y558150D02*
X304370Y558150D01*
X304370Y561000D02*
X297370Y561000D01*
X279830Y562300D02*
X279830Y555300D01*
X279830Y562300D02*
X286830Y562300D01*
X286830Y555300D01*
X279830Y555300D01*
X279830Y558150D02*
X286830Y558150D01*
X286830Y561000D02*
X279830Y561000D01*
X259270Y562300D02*
X259270Y555300D01*
X259270Y562300D02*
X266270Y562300D01*
X266270Y555300D01*
X259270Y555300D01*
X259270Y558150D02*
X266270Y558150D01*
X266270Y561000D02*
X259270Y561000D01*
X241730Y562300D02*
X241730Y555300D01*
X241730Y562300D02*
X248730Y562300D01*
X248730Y555300D01*
X241730Y555300D01*
X241730Y558150D02*
X248730Y558150D01*
X248730Y561000D02*
X241730Y561000D01*
X221170Y562300D02*
X221170Y555300D01*
X221170Y562300D02*
X228170Y562300D01*
X228170Y555300D01*
X221170Y555300D01*
X221170Y558150D02*
X228170Y558150D01*
X228170Y561000D02*
X221170Y561000D01*
X203630Y562300D02*
X203630Y555300D01*
X203630Y562300D02*
X210630Y562300D01*
X210630Y555300D01*
X203630Y555300D01*
X203630Y558150D02*
X210630Y558150D01*
X210630Y561000D02*
X203630Y561000D01*
X678370Y593400D02*
X678370Y600400D01*
X685370Y600400D01*
X685370Y593400D01*
X678370Y593400D01*
X678370Y596250D02*
X685370Y596250D01*
X685370Y599100D02*
X678370Y599100D01*
X660830Y600400D02*
X660830Y593400D01*
X660830Y600400D02*
X667830Y600400D01*
X667830Y593400D01*
X660830Y593400D01*
X660830Y596250D02*
X667830Y596250D01*
X667830Y599100D02*
X660830Y599100D01*
X640270Y600400D02*
X640270Y593400D01*
X640270Y600400D02*
X647270Y600400D01*
X647270Y593400D01*
X640270Y593400D01*
X640270Y596250D02*
X647270Y596250D01*
X647270Y599100D02*
X640270Y599100D01*
X622730Y600400D02*
X622730Y593400D01*
X622730Y600400D02*
X629730Y600400D01*
X629730Y593400D01*
X622730Y593400D01*
X622730Y596250D02*
X629730Y596250D01*
X629730Y599100D02*
X622730Y599100D01*
X297370Y524200D02*
X297370Y517200D01*
X297370Y524200D02*
X304370Y524200D01*
X304370Y517200D01*
X297370Y517200D01*
X297370Y520050D02*
X304370Y520050D01*
X304370Y522900D02*
X297370Y522900D01*
X279830Y524200D02*
X279830Y517200D01*
X279830Y524200D02*
X286830Y524200D01*
X286830Y517200D01*
X279830Y517200D01*
X279830Y520050D02*
X286830Y520050D01*
X286830Y522900D02*
X279830Y522900D01*
X602170Y593400D02*
X602170Y600400D01*
X609170Y600400D01*
X609170Y593400D01*
X602170Y593400D01*
X602170Y596250D02*
X609170Y596250D01*
X609170Y599100D02*
X602170Y599100D01*
X584630Y600400D02*
X584630Y593400D01*
X584630Y600400D02*
X591630Y600400D01*
X591630Y593400D01*
X584630Y593400D01*
X584630Y596250D02*
X591630Y596250D01*
X591630Y599100D02*
X584630Y599100D01*
X564070Y600400D02*
X564070Y593400D01*
X564070Y600400D02*
X571070Y600400D01*
X571070Y593400D01*
X564070Y593400D01*
X564070Y596250D02*
X571070Y596250D01*
X571070Y599100D02*
X564070Y599100D01*
X546530Y600400D02*
X546530Y593400D01*
X546530Y600400D02*
X553530Y600400D01*
X553530Y593400D01*
X546530Y593400D01*
X546530Y596250D02*
X553530Y596250D01*
X553530Y599100D02*
X546530Y599100D01*
X525970Y600400D02*
X525970Y593400D01*
X525970Y600400D02*
X532970Y600400D01*
X532970Y593400D01*
X525970Y593400D01*
X525970Y596250D02*
X532970Y596250D01*
X532970Y599100D02*
X525970Y599100D01*
X508430Y600400D02*
X508430Y593400D01*
X508430Y600400D02*
X515430Y600400D01*
X515430Y593400D01*
X508430Y593400D01*
X508430Y596250D02*
X515430Y596250D01*
X515430Y599100D02*
X508430Y599100D01*
X487870Y600400D02*
X487870Y593400D01*
X487870Y600400D02*
X494870Y600400D01*
X494870Y593400D01*
X487870Y593400D01*
X487870Y596250D02*
X494870Y596250D01*
X494870Y599100D02*
X487870Y599100D01*
X470330Y600400D02*
X470330Y593400D01*
X470330Y600400D02*
X477330Y600400D01*
X477330Y593400D01*
X470330Y593400D01*
X470330Y596250D02*
X477330Y596250D01*
X477330Y599100D02*
X470330Y599100D01*
X449770Y600400D02*
X449770Y593400D01*
X449770Y600400D02*
X456770Y600400D01*
X456770Y593400D01*
X449770Y593400D01*
X449770Y596250D02*
X456770Y596250D01*
X456770Y599100D02*
X449770Y599100D01*
X432230Y600400D02*
X432230Y593400D01*
X432230Y600400D02*
X439230Y600400D01*
X439230Y593400D01*
X432230Y593400D01*
X432230Y596250D02*
X439230Y596250D01*
X439230Y599100D02*
X432230Y599100D01*
X487870Y524200D02*
X487870Y517200D01*
X487870Y524200D02*
X494870Y524200D01*
X494870Y517200D01*
X487870Y517200D01*
X487870Y520050D02*
X494870Y520050D01*
X494870Y522900D02*
X487870Y522900D01*
X470330Y524200D02*
X470330Y517200D01*
X470330Y524200D02*
X477330Y524200D01*
X477330Y517200D01*
X470330Y517200D01*
X470330Y520050D02*
X477330Y520050D01*
X477330Y522900D02*
X470330Y522900D01*
X449770Y524200D02*
X449770Y517200D01*
X449770Y524200D02*
X456770Y524200D01*
X456770Y517200D01*
X449770Y517200D01*
X449770Y520050D02*
X456770Y520050D01*
X456770Y522900D02*
X449770Y522900D01*
X432230Y524200D02*
X432230Y517200D01*
X432230Y524200D02*
X439230Y524200D01*
X439230Y517200D01*
X432230Y517200D01*
X432230Y520050D02*
X439230Y520050D01*
X439230Y522900D02*
X432230Y522900D01*
X411670Y524200D02*
X411670Y517200D01*
X411670Y524200D02*
X418670Y524200D01*
X418670Y517200D01*
X411670Y517200D01*
X411670Y520050D02*
X418670Y520050D01*
X418670Y522900D02*
X411670Y522900D01*
X394130Y524200D02*
X394130Y517200D01*
X394130Y524200D02*
X401130Y524200D01*
X401130Y517200D01*
X394130Y517200D01*
X394130Y520050D02*
X401130Y520050D01*
X401130Y522900D02*
X394130Y522900D01*
X373570Y524200D02*
X373570Y517200D01*
X373570Y524200D02*
X380570Y524200D01*
X380570Y517200D01*
X373570Y517200D01*
X373570Y520050D02*
X380570Y520050D01*
X380570Y522900D02*
X373570Y522900D01*
X356030Y524200D02*
X356030Y517200D01*
X356030Y524200D02*
X363030Y524200D01*
X363030Y517200D01*
X356030Y517200D01*
X356030Y520050D02*
X363030Y520050D01*
X363030Y522900D02*
X356030Y522900D01*
X259270Y524200D02*
X259270Y517200D01*
X259270Y524200D02*
X266270Y524200D01*
X266270Y517200D01*
X259270Y517200D01*
X259270Y520050D02*
X266270Y520050D01*
X266270Y522900D02*
X259270Y522900D01*
X241730Y524200D02*
X241730Y517200D01*
X241730Y524200D02*
X248730Y524200D01*
X248730Y517200D01*
X241730Y517200D01*
X241730Y520050D02*
X248730Y520050D01*
X248730Y522900D02*
X241730Y522900D01*
X221170Y524200D02*
X221170Y517200D01*
X221170Y524200D02*
X228170Y524200D01*
X228170Y517200D01*
X221170Y517200D01*
X221170Y520050D02*
X228170Y520050D01*
X228170Y522900D02*
X221170Y522900D01*
X203630Y524200D02*
X203630Y517200D01*
X203630Y524200D02*
X210630Y524200D01*
X210630Y517200D01*
X203630Y517200D01*
X203630Y520050D02*
X210630Y520050D01*
X210630Y522900D02*
X203630Y522900D01*
X678370Y555300D02*
X678370Y562300D01*
X685370Y562300D01*
X685370Y555300D01*
X678370Y555300D01*
X678370Y558150D02*
X685370Y558150D01*
X685370Y561000D02*
X678370Y561000D01*
X660830Y562300D02*
X660830Y555300D01*
X660830Y562300D02*
X667830Y562300D01*
X667830Y555300D01*
X660830Y555300D01*
X660830Y558150D02*
X667830Y558150D01*
X667830Y561000D02*
X660830Y561000D01*
X640270Y562300D02*
X640270Y555300D01*
X640270Y562300D02*
X647270Y562300D01*
X647270Y555300D01*
X640270Y555300D01*
X640270Y558150D02*
X647270Y558150D01*
X647270Y561000D02*
X640270Y561000D01*
X622730Y562300D02*
X622730Y555300D01*
X622730Y562300D02*
X629730Y562300D01*
X629730Y555300D01*
X622730Y555300D01*
X622730Y558150D02*
X629730Y558150D01*
X629730Y561000D02*
X622730Y561000D01*
X602170Y562300D02*
X602170Y555300D01*
X602170Y562300D02*
X609170Y562300D01*
X609170Y555300D01*
X602170Y555300D01*
X602170Y558150D02*
X609170Y558150D01*
X609170Y561000D02*
X602170Y561000D01*
X584630Y562300D02*
X584630Y555300D01*
X584630Y562300D02*
X591630Y562300D01*
X591630Y555300D01*
X584630Y555300D01*
X584630Y558150D02*
X591630Y558150D01*
X591630Y561000D02*
X584630Y561000D01*
X564070Y562300D02*
X564070Y555300D01*
X564070Y562300D02*
X571070Y562300D01*
X571070Y555300D01*
X564070Y555300D01*
X564070Y558150D02*
X571070Y558150D01*
X571070Y561000D02*
X564070Y561000D01*
X546530Y562300D02*
X546530Y555300D01*
X546530Y562300D02*
X553530Y562300D01*
X553530Y555300D01*
X546530Y555300D01*
X546530Y558150D02*
X553530Y558150D01*
X553530Y561000D02*
X546530Y561000D01*
X525970Y562300D02*
X525970Y555300D01*
X525970Y562300D02*
X532970Y562300D01*
X532970Y555300D01*
X525970Y555300D01*
X525970Y558150D02*
X532970Y558150D01*
X532970Y561000D02*
X525970Y561000D01*
X508430Y562300D02*
X508430Y555300D01*
X508430Y562300D02*
X515430Y562300D01*
X515430Y555300D01*
X508430Y555300D01*
X508430Y558150D02*
X515430Y558150D01*
X515430Y561000D02*
X508430Y561000D01*
D11*
X219600Y368300D03*
X237600Y368300D03*
X359300Y444500D03*
X377300Y444500D03*
X321200Y444500D03*
X339200Y444500D03*
X283100Y444500D03*
X301100Y444500D03*
X245000Y444500D03*
X263000Y444500D03*
X206900Y444500D03*
X224900Y444500D03*
X664100Y482600D03*
X682100Y482600D03*
X626000Y482600D03*
X644000Y482600D03*
X587900Y482600D03*
X605900Y482600D03*
X549800Y482600D03*
X567800Y482600D03*
X511700Y482600D03*
X529700Y482600D03*
X664100Y444500D03*
X682100Y444500D03*
X473600Y482600D03*
X491600Y482600D03*
X435500Y482600D03*
X453500Y482600D03*
X397400Y482600D03*
X415400Y482600D03*
X359300Y482600D03*
X377300Y482600D03*
X321200Y482600D03*
X339200Y482600D03*
X283100Y482600D03*
X301100Y482600D03*
X245000Y482600D03*
X263000Y482600D03*
X206900Y482600D03*
X224900Y482600D03*
X664100Y520700D03*
X682100Y520700D03*
X626000Y520700D03*
X644000Y520700D03*
X626000Y444500D03*
X644000Y444500D03*
X587900Y520700D03*
X605900Y520700D03*
X549800Y520700D03*
X567800Y520700D03*
X511700Y520700D03*
X529700Y520700D03*
X587900Y444500D03*
X605900Y444500D03*
X549800Y444500D03*
X567800Y444500D03*
X511700Y444500D03*
X529700Y444500D03*
X473600Y444500D03*
X491600Y444500D03*
X435500Y444500D03*
X453500Y444500D03*
X397400Y444500D03*
X415400Y444500D03*
D12*
X631850Y335000D03*
X631850Y300000D03*
X587350Y300000D03*
X587350Y335000D03*
X454050Y335000D03*
X454050Y300000D03*
X409550Y300000D03*
X409550Y335000D03*
X631850Y411200D03*
X631850Y376200D03*
X587350Y376200D03*
X587350Y411200D03*
X454050Y411200D03*
X454050Y376200D03*
X409550Y376200D03*
X409550Y411200D03*
D13*
X407600Y240100D03*
X417600Y240100D03*
X427600Y240100D03*
X437600Y240100D03*
X447600Y240100D03*
X457600Y240100D03*
X467600Y240100D03*
X477600Y240100D03*
X487600Y240100D03*
X497600Y240100D03*
X507600Y240100D03*
X517600Y240100D03*
X527600Y240100D03*
X537600Y240100D03*
X547600Y240100D03*
X557600Y240100D03*
X407600Y230100D03*
X417600Y230100D03*
X427600Y230100D03*
X437600Y230100D03*
X447600Y230100D03*
X457600Y230100D03*
X467600Y230100D03*
X477600Y230100D03*
X487600Y230100D03*
X497600Y230100D03*
X507600Y230100D03*
X517600Y230100D03*
X527600Y230100D03*
X537600Y230100D03*
X547600Y230100D03*
X557600Y230100D03*
X407600Y220100D03*
X417600Y220100D03*
X427600Y220100D03*
X437600Y220100D03*
X447600Y220100D03*
X457600Y220100D03*
X467600Y220100D03*
X477600Y220100D03*
X487600Y220100D03*
X497600Y220100D03*
X507600Y220100D03*
X517600Y220100D03*
X527600Y220100D03*
X537600Y220100D03*
X547600Y220100D03*
X557600Y220100D03*
X407600Y210100D03*
X417600Y210100D03*
X427600Y210100D03*
X437600Y210100D03*
X447600Y210100D03*
X457600Y210100D03*
X467600Y210100D03*
X477600Y210100D03*
X487600Y210100D03*
X497600Y210100D03*
X507600Y210100D03*
X517600Y210100D03*
X527600Y210100D03*
X537600Y210100D03*
X547600Y210100D03*
X557600Y210100D03*
X407600Y200100D03*
X417600Y200100D03*
X427600Y200100D03*
X437600Y200100D03*
X447600Y200100D03*
X457600Y200100D03*
X467600Y200100D03*
X477600Y200100D03*
X487600Y200100D03*
X497600Y200100D03*
X507600Y200100D03*
X517600Y200100D03*
X527600Y200100D03*
X537600Y200100D03*
X547600Y200100D03*
X557600Y200100D03*
X407600Y190100D03*
X417600Y190100D03*
X427600Y190100D03*
X437600Y190100D03*
X447600Y190100D03*
X457600Y190100D03*
X467600Y190100D03*
X477600Y190100D03*
X487600Y190100D03*
X497600Y190100D03*
X507600Y190100D03*
X517600Y190100D03*
X527600Y190100D03*
X537600Y190100D03*
X547600Y190100D03*
X557600Y190100D03*
X407600Y180100D03*
X417600Y180100D03*
X427600Y180100D03*
X437600Y180100D03*
X447600Y180100D03*
X457600Y180100D03*
X467600Y180100D03*
X477600Y180100D03*
X487600Y180100D03*
X497600Y180100D03*
X507600Y180100D03*
X517600Y180100D03*
X527600Y180100D03*
X537600Y180100D03*
X547600Y180100D03*
X557600Y180100D03*
X407600Y170100D03*
X417600Y170100D03*
X427600Y170100D03*
X437600Y170100D03*
X447600Y170100D03*
X457600Y170100D03*
X467600Y170100D03*
X477600Y170100D03*
X487600Y170100D03*
X497600Y170100D03*
X507600Y170100D03*
X517600Y170100D03*
X527600Y170100D03*
X537600Y170100D03*
X547600Y170100D03*
X557600Y170100D03*
X407600Y160100D03*
X417600Y160100D03*
X427600Y160100D03*
X437600Y160100D03*
X447600Y160100D03*
X457600Y160100D03*
X467600Y160100D03*
X477600Y160100D03*
X487600Y160100D03*
X497600Y160100D03*
X507600Y160100D03*
X517600Y160100D03*
X527600Y160100D03*
X537600Y160100D03*
X547600Y160100D03*
X557600Y160100D03*
X407600Y150100D03*
X417600Y150100D03*
X427600Y150100D03*
X437600Y150100D03*
X447600Y150100D03*
X457600Y150100D03*
X467600Y150100D03*
X477600Y150100D03*
X487600Y150100D03*
X497600Y150100D03*
X507600Y150100D03*
X517600Y150100D03*
X527600Y150100D03*
X537600Y150100D03*
X547600Y150100D03*
X557600Y150100D03*
X407600Y140100D03*
X417600Y140100D03*
X427600Y140100D03*
X437600Y140100D03*
X447600Y140100D03*
X457600Y140100D03*
X467600Y140100D03*
X477600Y140100D03*
X487600Y140100D03*
X497600Y140100D03*
X507600Y140100D03*
X517600Y140100D03*
X527600Y140100D03*
X537600Y140100D03*
X547600Y140100D03*
X557600Y140100D03*
X407600Y130100D03*
X417600Y130100D03*
X427600Y130100D03*
X437600Y130100D03*
X447600Y130100D03*
X457600Y130100D03*
X467600Y130100D03*
X477600Y130100D03*
X487600Y130100D03*
X497600Y130100D03*
X507600Y130100D03*
X517600Y130100D03*
X527600Y130100D03*
X537600Y130100D03*
X547600Y130100D03*
X557600Y130100D03*
X407600Y120100D03*
X417600Y120100D03*
X427600Y120100D03*
X437600Y120100D03*
X447600Y120100D03*
X457600Y120100D03*
X467600Y120100D03*
X477600Y120100D03*
X487600Y120100D03*
X497600Y120100D03*
X507600Y120100D03*
X517600Y120100D03*
X527600Y120100D03*
X537600Y120100D03*
X547600Y120100D03*
X557600Y120100D03*
X407600Y110100D03*
X417600Y110100D03*
X427600Y110100D03*
X437600Y110100D03*
X447600Y110100D03*
X457600Y110100D03*
X467600Y110100D03*
X477600Y110100D03*
X487600Y110100D03*
X497600Y110100D03*
X507600Y110100D03*
X517600Y110100D03*
X527600Y110100D03*
X537600Y110100D03*
X547600Y110100D03*
X557600Y110100D03*
X407600Y100100D03*
X417600Y100100D03*
X427600Y100100D03*
X437600Y100100D03*
X447600Y100100D03*
X457600Y100100D03*
X467600Y100100D03*
X477600Y100100D03*
X487600Y100100D03*
X497600Y100100D03*
X507600Y100100D03*
X517600Y100100D03*
X527600Y100100D03*
X537600Y100100D03*
X547600Y100100D03*
X557600Y100100D03*
X407600Y90100D03*
X417600Y90100D03*
X427600Y90100D03*
X437600Y90100D03*
X447600Y90100D03*
X457600Y90100D03*
X467600Y90100D03*
X477600Y90100D03*
X487600Y90100D03*
X497600Y90100D03*
X507600Y90100D03*
X517600Y90100D03*
X527600Y90100D03*
X537600Y90100D03*
X547600Y90100D03*
X557600Y90100D03*
D14*
X279400Y370000D03*
X304800Y370000D03*
X304800Y392000D03*
X279400Y392000D03*
M02*
