M48
;GenerationSoftware,Autodesk,EAGLE,9.6.2*%
;CreationDate,2022-06-21T21:27:28Z*%
FMAT,2
ICI,OFF
METRIC,TZ,000.000
T1C0.350
%
G90
M71
T1
X54254Y24689
X45263Y8382
X40081Y17526
X56388Y19507
X48463Y56845
X21488Y38100
X47244Y24689
X21946Y45720
X30632Y58217
X68428Y49530
X40081Y22555
X19660Y51816
X45263Y24841
X21336Y53188
X41910Y24841
X24384Y42367
X48158Y30785
X61874Y54407
X16916Y53645
X69037Y50902
X40081Y16459
X51511Y56998
X40081Y19507
X43891Y56998
X51664Y24841
X39014Y56845
X41910Y54712
X50902Y45720
X45720Y54712
X66599Y45720
X52578Y54712
X61570Y45110
X56845Y54712
X58674Y45720
X52883Y7163
X23012Y58064
X40081Y10516
X19050Y56693
X40081Y12497
X26670Y58217
X40081Y14478
X34900Y57607
X37795Y54712
X30480Y45720
X27280Y55169
X41453Y45720
X22555Y54712
X44958Y45720
X67361Y58522
X49530Y45720
X42824Y7925
X43129Y60808
X47854Y7772
X47701Y60808
X57150Y27584
X51511Y60808
X56540Y23622
X55016Y58064
X59893Y60655
X34900Y44196
X37186Y53340
X21184Y49530
X49530Y53188
X66294Y50902
X56388Y21488
X58369Y32309
X62636Y50902
X56388Y17526
X45720Y32309
X56540Y49835
X56388Y10516
X64160Y40538
X28956Y40691
X53950Y52273
X40843Y50597
X28194Y47092
X46939Y40691
X45872Y49835
X44501Y53645
X25603Y50140
X56540Y13564
X31852Y38557
X15240Y66040
X77470Y66040
X13970Y11430
X77470Y11430
X3810Y76200
X96520Y76200
X95250Y3810
X5080Y3810
M30